<svg width="76" height="16" viewBox="0 0 76 16" version="1.1" xmlns="http://www.w3.org/2000/svg" xmlns:xlink="http://www.w3.org/1999/xlink">
<title>logo</title>
<desc>Created using Figma</desc>
<g id="Canvas" transform="translate(285 161)">
<clipPath id="clip-0" clip-rule="evenodd">
<path d="M -285 -161L -209 -161L -209 -145L -285 -145L -285 -161Z" fill="#FFFFFF"/>
</clipPath>
<g id="logo" clip-path="url(#clip-0)">
<g id="Subtract">
<use xlink:href="#path0_fill" transform="translate(-265 -161)" fill="#FFFFFF"/>
</g>
<g id="Union">
<use xlink:href="#path1_fill" transform="translate(-285 -161)" fill="#FFFFFF"/>
</g>
<g id="Subtract">
<use xlink:href="#path0_fill" transform="translate(-225 -161)" fill="#FFFFFF"/>
</g>
<g id="Union">
<use xlink:href="#path2_fill" transform="translate(-245 -161)" fill="#FFFFFF"/>
</g>
</g>
</g>
<defs>
<path id="path0_fill" fill-rule="evenodd" d="M 8 16C 12.4183 16 16 12.4183 16 8C 16 3.58173 12.4183 0 8 0C 3.58173 0 0 3.58173 0 8C 0 12.4183 3.58173 16 8 16ZM 8 13C 10.7614 13 13 10.7614 13 8C 13 5.23857 10.7614 3 8 3C 5.23857 3 3 5.23857 3 8C 3 10.7614 5.23857 13 8 13Z"/>
<path id="path1_fill" fill-rule="evenodd" d="M 3 8C 3 5.23857 5.23859 3 8 3C 10.7614 3 13 5.23857 13 8L 13 14.5C 13 15.3284 13.6716 16 14.5 16C 15.3284 16 16 15.3284 16 14.5L 16 8L 16 7.5C 16 7.37039 15.9836 7.24464 15.9527 7.12469C 15.5167 3.11821 12.1225 0 8 0C 3.87752 0 0.483322 3.11821 0.0473328 7.12469C 0.0164337 7.24464 0 7.37039 0 7.5L 0 8L 0 14.5C 0 15.3284 0.67157 16 1.5 16C 2.32843 16 3 15.3284 3 14.5L 3 8Z"/>
<path id="path2_fill" fill-rule="evenodd" d="M 3 8C 3 5.23857 5.23859 3 8 3C 10.7614 3 13 5.23857 13 8L 13 14.5C 13 15.3284 13.6716 16 14.5 16C 15.3284 16 16 15.3284 16 14.5L 16 8L 16 7.5C 16 7.37039 15.9836 7.24464 15.9527 7.12469C 15.5167 3.11821 12.1225 0 8 0C 3.87752 0 0.483322 3.11821 0.0473328 7.12469C 0.0164337 7.24464 0 7.37039 0 7.5L 0 8L 0 14.5C 0 15.3284 0.67157 16 1.5 16C 2.32843 16 3 15.3284 3 14.5L 3 8Z"/>
</defs>
</svg>
